# Blender 3.5.0
# www.blender.org
mtllib frog.mtl
o Cube
v -0.411920 2.034548 -1.152292
v -0.411818 2.034702 1.152057
v -2.034676 -0.411946 -1.152057
v -2.034574 -0.411792 1.152292
v 2.034574 0.411792 -1.152292
v 2.034676 0.411946 1.152057
v 0.411818 -2.034702 -1.152057
v 0.411920 -2.034548 1.152292
v -0.991167 -0.539358 -1.136067
v -0.762593 -0.194756 -1.806780
v -0.643111 -0.014621 -0.763580
v -0.414535 0.329984 -1.393259
v -1.618944 -0.122954 -1.136067
v -1.390370 0.221648 -1.806780
v -1.270887 0.401782 -0.763580
v -1.042312 0.746387 -1.393259
v 0.514136 -1.537824 -1.136067
v 0.736010 -1.188777 -1.806780
v 0.867777 -1.016791 -0.763580
v 1.089652 -0.667742 -1.393259
v -0.113641 -1.121420 -1.136067
v 0.108233 -0.772373 -1.806780
v 0.240000 -0.600387 -0.763580
v 0.461875 -0.251338 -1.393259
v -0.012908 -2.713819 -0.322466
v -0.012930 -2.713822 -0.593938
v 0.257015 -2.684863 -0.322488
v 0.256994 -2.684865 -0.593960
v -0.041864 -2.443896 -0.322466
v -0.041886 -2.443898 -0.593938
v 0.228059 -2.414940 -0.322488
v 0.228037 -2.414942 -0.593960
v -1.305215 -1.791916 0.147194
v -1.305237 -1.791921 -0.124278
v -1.039139 -1.738056 0.147173
v -1.039161 -1.738060 -0.124300
v -1.359076 -1.525841 0.147194
v -1.359097 -1.525845 -0.124278
v -1.093000 -1.471980 0.147173
v -1.093021 -1.471985 -0.124300
vn -0.0000 -0.0001 -1.0000
vn -0.5528 -0.8333 0.0001
vn 0.8333 -0.5528 -0.0000
vn -0.0000 0.0001 1.0000
vn -0.8333 0.5528 -0.0000
vn 0.5528 0.8333 -0.0001
vn 0.4620 0.6966 0.5489
vn -0.4705 -0.7094 -0.5248
vn -0.2814 -0.4243 0.8607
vn 0.3034 0.4574 -0.8359
vn 0.8318 -0.5549 -0.0136
vn -0.8318 0.5549 0.0136
vn 0.1067 -0.9943 -0.0000
vn 0.9943 0.1067 -0.0001
vn -0.1067 0.9943 -0.0000
vn -0.9943 -0.1067 0.0001
vn 0.0001 -0.0000 1.0000
vn -0.0001 -0.0000 -1.0000
vn 0.1984 -0.9801 -0.0000
vn 0.9801 0.1984 -0.0001
vn -0.1984 0.9801 -0.0000
vn -0.9801 -0.1984 0.0001
vn 0.8324 -0.5540 -0.0138
vn -0.8324 0.5540 0.0138
vt 0.015867 0.015867
vt 0.565316 0.377388
vt 0.015867 0.377388
vt 0.306459 0.377388
vt 0.699760 0.345654
vt 0.274725 0.377388
vt 0.015867 0.345654
vt 0.731494 0.345654
vt 0.565316 0.707174
vt 0.984133 0.345654
vt 0.377388 0.345654
vt 0.306459 0.707175
vt 0.345654 0.015867
vt 0.855907 0.707175
vt 0.015867 0.707174
vt 0.699760 0.015867
vt 0.274725 0.707174
vt 0.597050 0.707174
vt 0.345654 0.345654
vt 0.731494 0.015867
vt 0.855907 0.377388
vt 0.597050 0.377388
vt 0.984133 0.015867
vt 0.377388 0.015867
vt 0.681639 0.738909
vt 0.823073 0.738909
vt 0.333606 0.738909
vt 0.681639 0.827422
vt 0.249953 0.738909
vt 0.784105 0.856020
vt 0.436071 0.940795
vt 0.599469 0.740413
vt 0.901037 0.738909
vt 0.597050 0.825003
vt 0.365340 0.940795
vt 0.713374 0.856020
vt 0.565316 0.827422
vt 0.333606 0.823533
vt 0.823073 0.823533
vt 0.565316 0.738909
vt 0.249953 0.823533
vt 0.784105 0.940644
vt 0.436071 0.856170
vt 0.483146 0.825917
vt 0.901038 0.823533
vt 0.713374 0.940644
vt 0.365340 0.856170
vt 0.480726 0.741328
vt 0.100458 0.738909
vt 0.365340 0.824436
vt 0.791338 0.823533
vt 0.100458 0.827423
vt 0.448992 0.823533
vt 0.893804 0.856020
vt 0.249953 0.855267
vt 0.713374 0.824286
vt 0.018286 0.740410
vt 0.015867 0.825001
vt 0.320684 0.856170
vt 0.823073 0.855267
vt 0.216783 0.827423
vt 0.365340 0.739812
vt 0.791338 0.738909
vt 0.893804 0.940644
vt 0.216783 0.738909
vt 0.448992 0.738909
vt 0.249953 0.939891
vt 0.134611 0.825922
vt 0.713374 0.739662
vt 0.320684 0.940794
vt 0.132192 0.741331
vt 0.823073 0.939891
vt 0.605186 0.859156
vt 0.045630 0.921387
vt 0.887641 0.564077
vt 0.635682 0.859156
vt 0.015867 0.921387
vt 0.480727 0.889652
vt 0.170822 0.859158
vt 0.917451 0.564077
vt 0.605186 0.889652
vt 0.635682 0.889652
vt 0.170822 0.889653
vt 0.511222 0.889652
vt 0.045630 0.951883
vt 0.918137 0.377388
vt 0.887641 0.594573
vt 0.887641 0.377388
vt 0.015867 0.951883
vt 0.480727 0.859156
vt 0.918137 0.407884
vt 0.140327 0.859158
vt 0.917451 0.594573
vt 0.511222 0.859156
vt 0.140327 0.889653
vt 0.887641 0.407884
vt 0.917404 0.626307
vt 0.887641 0.439618
vt 0.887641 0.501848
vt 0.918137 0.439618
vt 0.887641 0.626307
vt 0.046363 0.889653
vt 0.887641 0.470113
vt 0.108593 0.859158
vt 0.917451 0.501848
vt 0.918137 0.470113
vt 0.108593 0.889653
vt 0.046363 0.859158
vt 0.573452 0.859156
vt 0.917404 0.656803
vt 0.887641 0.532343
vt 0.542956 0.859156
vt 0.887641 0.656803
vt 0.015867 0.889653
vt 0.078097 0.859157
vt 0.573452 0.889652
vt 0.917451 0.532343
vt 0.015867 0.859158
vt 0.078097 0.889653
vt 0.542956 0.889652
s 0
usemtl Material
f 5/13/1 3/7/1 1/1/1
f 3/8/2 8/23/2 4/10/2
f 7/21/3 6/18/3 8/22/3
f 2/5/4 8/24/4 6/16/4
f 1/2/5 4/12/5 2/4/5
f 5/15/6 2/6/6 6/17/6
f 10/28/3 11/32/3 9/25/3
f 12/35/7 15/43/7 11/31/7
f 15/44/5 14/40/5 13/37/5
f 14/41/8 9/27/8 13/38/8
f 11/33/9 13/39/9 9/26/9
f 12/36/10 14/42/10 16/46/10
f 18/52/11 19/57/11 17/49/11
f 20/59/7 23/67/7 19/55/7
f 23/68/12 22/65/12 21/61/12
f 21/62/8 18/53/8 17/50/8
f 23/69/9 17/51/9 19/56/9
f 24/72/10 18/54/10 22/64/10
f 26/76/13 27/81/13 25/73/13
f 28/83/14 31/92/14 27/79/14
f 32/96/15 29/86/15 31/91/15
f 30/89/16 25/74/16 29/85/16
f 31/93/17 25/75/17 27/80/17
f 28/84/18 30/90/18 32/94/18
f 33/98/19 36/106/19 35/103/19
f 36/107/20 39/115/20 35/104/20
f 39/116/21 38/112/21 37/109/21
f 37/110/22 34/101/22 33/97/22
f 39/117/17 33/99/17 35/105/17
f 36/108/18 38/114/18 40/118/18
f 5/13/1 7/19/1 3/7/1
f 3/8/2 7/20/2 8/23/2
f 7/21/3 5/14/3 6/18/3
f 2/5/4 4/11/4 8/24/4
f 1/2/5 3/9/5 4/12/5
f 5/15/6 1/3/6 2/6/6
f 10/28/3 12/34/3 11/32/3
f 12/35/7 16/47/7 15/43/7
f 15/44/5 16/48/5 14/40/5
f 14/41/8 10/29/8 9/27/8
f 11/33/9 15/45/9 13/39/9
f 12/36/10 10/30/10 14/42/10
f 18/52/23 20/58/23 19/57/23
f 20/59/7 24/70/7 23/67/7
f 23/68/24 24/71/24 22/65/24
f 21/62/8 22/66/8 18/53/8
f 23/69/9 21/63/9 17/51/9
f 24/72/10 20/60/10 18/54/10
f 26/76/13 28/82/13 27/81/13
f 28/83/14 32/95/14 31/92/14
f 32/96/15 30/88/15 29/86/15
f 30/89/16 26/77/16 25/74/16
f 31/93/17 29/87/17 25/75/17
f 28/84/18 26/78/18 30/90/18
f 33/98/19 34/100/19 36/106/19
f 36/107/20 40/119/20 39/115/20
f 39/116/21 40/120/21 38/112/21
f 37/110/22 38/113/22 34/101/22
f 39/117/17 37/111/17 33/99/17
f 36/108/18 34/102/18 38/114/18
