# Blender 3.5.0
# www.blender.org
mtllib enemy.mtl
o Cube
v -1.771435 1.644167 -1.138754
v 0.170817 1.644167 -1.138754
v -1.771435 1.644167 1.138754
v 0.170817 1.644167 1.138754
v -1.771435 -0.310881 -1.138754
v 0.170817 -0.310881 -1.138754
v -1.771435 -0.310881 1.138754
v 0.170817 -0.310881 1.138754
vn -1.0000 -0.0000 -0.0000
vn -0.0000 -0.0000 1.0000
vn -0.0000 -1.0000 -0.0000
vn 1.0000 -0.0000 -0.0000
vn -0.0000 1.0000 -0.0000
vn -0.0000 -0.0000 -1.0000
vt 0.693703 0.000000
vt 0.462469 0.537531
vt 0.462469 0.231234
vt 0.462469 0.306297
vt 0.231234 0.306297
vt 0.462469 0.000000
vt 0.693703 0.231234
vt 0.693703 0.693703
vt 0.231234 0.537531
vt 0.693703 0.462469
vt 0.231234 0.537531
vt 0.231234 0.306297
vt 0.924937 0.000000
vt 0.462469 0.462469
vt 0.693703 0.231234
vt 0.000000 0.306297
vt 0.693703 0.000000
vt 0.462469 0.231234
vt 0.924937 0.231234
vt 0.462469 0.693703
vt 0.693703 0.462469
vt 0.693703 0.231234
vt 0.462469 0.462469
vt 0.000000 0.537531
s 0
usemtl Material
f 5/13/1 3/7/1 1/1/1
f 3/8/2 8/23/2 4/10/2
f 7/21/3 6/18/3 8/22/3
f 2/5/4 8/24/4 6/16/4
f 1/2/5 4/12/5 2/4/5
f 5/15/6 2/6/6 6/17/6
f 5/13/1 7/19/1 3/7/1
f 3/8/2 7/20/2 8/23/2
f 7/21/3 5/14/3 6/18/3
f 2/5/4 4/11/4 8/24/4
f 1/2/5 3/9/5 4/12/5
f 5/15/6 1/3/6 2/6/6
o Cube.001
v 0.810515 0.114305 1.047438
v 0.472616 0.114305 1.047438
v 0.810515 0.114305 0.426717
v 0.472616 0.114305 0.426717
v 0.810515 1.419052 1.047438
v 0.189794 1.419052 1.047438
v 0.810515 1.419052 0.426717
v 0.189794 1.419052 0.426717
vn -0.0000 -1.0000 -0.0000
vn -0.0000 -0.0000 -1.0000
vn -0.0000 1.0000 -0.0000
vn -0.0000 -0.0000 1.0000
vn 1.0000 -0.0000 -0.0000
vn -0.9773 -0.2118 -0.0000
vt 0.231234 0.000000
vt 0.693703 0.693703
vt 0.693703 0.462469
vt 0.693703 0.819579
vt 0.231234 0.052191
vt 0.000000 1.000000
vt 0.693703 0.231234
vt 0.000000 0.000000
vt 0.000000 0.874124
vt 0.000000 0.052191
vt 0.231234 0.537531
vt 0.924937 0.693703
vt 0.924937 0.462469
vt 0.231234 0.768766
vt 0.924937 0.924937
vt 0.231234 0.306297
vt 0.462469 0.537531
vt 0.231234 1.000000
vt 0.924937 0.231234
vt 0.000000 0.306297
vt 0.231234 0.768766
vt 0.462469 0.768766
s 0
usemtl Material.001
f 10/29/7 11/32/7 9/25/7
f 12/33/8 15/42/8 11/30/8
f 16/46/9 13/35/9 15/41/9
f 13/36/10 10/28/10 9/26/10
f 15/43/11 9/27/11 11/31/11
f 12/34/12 14/40/12 16/44/12
f 10/29/7 12/34/7 11/32/7
f 12/33/8 16/45/8 15/42/8
f 16/46/9 14/38/9 13/35/9
f 13/36/10 14/39/10 10/28/10
f 15/43/11 13/37/11 9/27/11
f 12/34/12 10/29/12 14/40/12
o Cube.002
v 0.810515 0.114305 -0.426717
v 0.472616 0.114305 -0.426717
v 0.810515 0.114305 -1.047438
v 0.472616 0.114305 -1.047438
v 0.810515 1.419052 -0.426717
v 0.189794 1.419052 -0.426717
v 0.810515 1.419052 -1.047438
v 0.189794 1.419052 -1.047438
vn -0.0000 -1.0000 -0.0000
vn -0.0000 -0.0000 -1.0000
vn -0.0000 1.0000 -0.0000
vn -0.0000 -0.0000 1.0000
vn 1.0000 -0.0000 -0.0000
vn -0.9773 -0.2118 -0.0000
vt 0.462469 0.000000
vt 0.462469 0.693703
vt 0.693703 0.693703
vt 0.462469 0.819579
vt 0.462469 0.052191
vt 0.231234 1.000000
vt 0.693703 0.462469
vt 0.231234 0.000000
vt 0.231234 0.874124
vt 0.231234 0.052191
vt 0.000000 0.537531
vt 0.693703 0.693703
vt 0.924937 0.693703
vt 0.000000 0.768766
vt 0.693703 0.924937
vt 0.462469 0.306297
vt 0.231234 0.537531
vt 0.462469 1.000000
vt 0.924937 0.462469
vt 0.231234 0.306297
vt 0.462469 0.768766
vt 0.231234 0.768766
s 0
usemtl Material.002
f 18/51/13 19/54/13 17/47/13
f 20/55/14 23/64/14 19/52/14
f 24/68/15 21/57/15 23/63/15
f 21/58/16 18/50/16 17/48/16
f 23/65/17 17/49/17 19/53/17
f 20/56/18 22/62/18 24/66/18
f 18/51/13 20/56/13 19/54/13
f 20/55/14 24/67/14 23/64/14
f 24/68/15 22/60/15 21/57/15
f 21/58/16 22/61/16 18/50/16
f 23/65/17 21/59/17 17/49/17
f 20/56/18 18/51/18 22/62/18
