# Blender 3.5.0
# www.blender.org
mtllib Leveltest.mtl
o Cube
v 462.222198 -27.637859 39.294022
v 462.222198 -3.361473 39.294022
v 462.222198 -27.637859 37.294022
v 462.222198 -3.361473 37.294022
v 60.823883 -27.637859 39.294022
v 60.823883 -3.361473 39.294022
v 60.823883 -27.637859 37.294022
v 60.823883 -3.361473 37.294022
v -2457.129639 667.742981 -662.913452
v -2457.129639 667.742920 1197.563477
v -2457.129639 658.324097 -662.913452
v -2457.129639 658.324036 1197.563477
v 2286.799072 667.742981 -662.913452
v 2286.799072 667.742920 1197.563477
v 2286.799072 658.324097 -662.913452
v 2286.799072 658.324036 1197.563477
v -1741.464722 -1229.170410 -57.756241
v -1741.464722 -1229.170410 -1.111313
v -1741.464722 -0.120923 -57.756180
v -1741.464722 -0.120926 -1.111252
v 1571.134399 -1229.170410 -57.756241
v 1571.134399 -1229.170410 -1.111313
v 1571.134399 -0.120923 -57.756180
v 1571.134399 -0.120926 -1.111252
vn 1.0000 -0.0000 -0.0000
vn -0.0000 -0.0000 -1.0000
vn -1.0000 -0.0000 -0.0000
vn -0.0000 -0.0000 1.0000
vn -0.0000 -1.0000 -0.0000
vn -0.0000 1.0000 -0.0000
vt 0.047212 0.054424
vt 0.043987 0.054424
vt 0.049362 0.054424
vt 0.047212 0.055499
vt 0.043987 0.055499
vt 0.048287 0.055499
vt 0.050437 0.054424
vt 0.046137 0.054424
vt 0.046137 0.055499
vt 0.049362 0.055499
vt 0.045062 0.054424
vt 0.047212 0.054424
vt 0.049362 0.055499
vt 0.047212 0.055499
vt 0.045062 0.055499
vt 0.048287 0.054424
vt 0.048287 0.054424
vt 0.045062 0.054424
vt 0.050437 0.055499
vt 0.049362 0.054424
vt 0.045062 0.055499
vt 0.048287 0.055499
vt 0.104463 0.000000
vt 0.012705 0.000000
vt 0.043570 0.054424
vt 0.104463 1.000000
vt 0.012705 1.000000
vt 0.043153 0.067129
vt 0.012705 0.000000
vt 0.043987 0.054424
vt 0.104046 0.000000
vt 0.104046 1.000000
vt 0.012705 1.000000
vt 0.043570 0.067129
vt 0.025410 0.000000
vt 0.104880 1.000000
vt 0.043570 0.067129
vt 0.104880 0.000000
vt 0.025410 1.000000
vt 0.043153 0.054424
vt 0.104463 1.000000
vt 0.000000 0.000000
vt 0.043987 0.067129
vt 0.043570 0.054424
vt 0.000000 1.000000
vt 0.104463 0.000000
vt 0.055856 0.000000
vt 0.034281 0.054424
vt 0.095174 0.000000
vt 0.025410 0.000000
vt 0.034281 0.084871
vt 0.095174 0.000000
vt 0.034281 0.054424
vt 0.095174 0.054424
vt 0.055856 0.054424
vt 0.025410 0.054424
vt 0.034281 0.084871
vt 0.095174 0.054424
vt 0.025410 0.054424
vt 0.086303 0.054424
vt 0.104046 0.000000
vt 0.055856 0.054424
vt 0.025410 0.084871
vt 0.086303 0.000000
vt 0.043153 0.054424
vt 0.086303 0.000000
vt 0.104046 0.054424
vt 0.055856 0.000000
vt 0.086303 0.054424
vt 0.043153 0.084871
s 0
usemtl Material.003
f 2/4/1 1/1/1 3/8/1
f 4/9/2 3/8/2 7/18/2
f 8/22/3 7/17/3 5/12/3
f 6/15/4 5/11/4 1/2/4
f 7/19/5 3/7/5 1/3/5
f 4/10/6 8/20/6 6/16/6
f 10/26/3 9/23/3 11/31/3
f 12/33/5 11/29/5 15/42/5
f 16/46/1 15/41/1 13/36/1
f 14/39/6 13/35/6 9/24/6
f 15/43/2 11/30/2 9/25/2
f 12/34/4 16/44/4 14/40/4
f 19/55/3 17/47/3 18/50/3
f 23/65/6 19/53/6 20/57/6
f 23/66/1 24/68/1 22/62/1
f 17/48/5 21/59/5 22/63/5
f 17/49/2 19/54/2 23/67/2
f 22/64/4 24/69/4 20/58/4
f 2/4/1 3/8/1 4/9/1
f 4/9/2 7/18/2 8/21/2
f 8/22/3 5/12/3 6/14/3
f 6/15/4 1/2/4 2/5/4
f 7/19/5 1/3/5 5/13/5
f 4/10/6 6/16/6 2/6/6
f 10/26/3 11/31/3 12/32/3
f 12/33/5 15/42/5 16/45/5
f 16/46/1 13/36/1 14/38/1
f 14/39/6 9/24/6 10/27/6
f 15/43/2 9/25/2 13/37/2
f 12/34/4 14/40/4 10/28/4
f 19/55/3 18/50/3 20/56/3
f 23/65/6 20/57/6 24/70/6
f 23/66/1 22/62/1 21/60/1
f 17/48/5 22/63/5 18/51/5
f 17/49/2 23/67/2 21/61/2
f 22/64/4 20/58/4 18/52/4
