# Blender 3.5.0
# www.blender.org
mtllib Leveltest.mtl
o Cube
v 58.074776 49.081570 -3.463619
v 58.074776 51.533970 -3.463619
v 58.074776 49.081570 -3.665659
v 58.074776 51.533970 -3.665659
v 17.525528 49.081570 -3.463619
v 17.525528 51.533970 -3.463619
v 17.525528 49.081570 -3.665659
v 17.525528 51.533970 -3.665659
v -236.838058 119.328934 -74.400604
v -236.838058 119.328918 113.544731
v -236.838058 118.377434 -74.400604
v -236.838058 118.377426 113.544731
v 242.393509 119.328934 -74.400604
v 242.393509 119.328918 113.544731
v 242.393509 118.377434 -74.400604
v 242.393509 118.377426 113.544731
v -164.541626 -72.297226 -13.267633
v -164.541626 -72.297226 -7.545364
v -164.541626 51.861328 -13.267628
v -164.541626 51.861328 -7.545359
v 170.097061 -72.297226 -13.267633
v 170.097061 -72.297226 -7.545364
v 170.097061 51.861328 -13.267628
v 170.097061 51.861328 -7.545359
vn 1.0000 -0.0000 -0.0000
vn -0.0000 -0.0000 -1.0000
vn -1.0000 -0.0000 -0.0000
vn -0.0000 -0.0000 1.0000
vn -0.0000 -1.0000 -0.0000
vn -0.0000 1.0000 -0.0000
vt 0.200000 0.800000
vt 0.200000 0.200000
vt 0.600000 0.600000
vt 0.200000 1.000000
vt 0.200000 0.400000
vt 1.000000 0.200000
vt 0.200000 0.200000
vt 0.600000 0.400000
vt 0.000000 0.800000
vt 0.000000 1.000000
vt 0.200000 0.400000
vt 1.000000 0.000000
vt 0.400000 0.200000
vt 0.600000 0.600000
vt 0.800000 0.600000
vt 0.600000 0.800000
vt 0.400000 0.400000
vt 0.800000 0.200000
vt 0.800000 0.600000
vt 0.000000 0.200000
vt 0.800000 0.400000
vt 0.800000 0.000000
vt 0.000000 0.400000
vt 0.800000 0.800000
vt 0.104463 0.000000
vt 0.012705 0.000000
vt 0.043570 0.054424
vt 0.104463 1.000000
vt 0.012705 1.000000
vt 0.043153 0.067129
vt 0.012705 0.000000
vt 0.043987 0.054424
vt 0.104046 0.000000
vt 0.104046 1.000000
vt 0.012705 1.000000
vt 0.043570 0.067129
vt 0.025410 0.000000
vt 0.104880 1.000000
vt 0.043570 0.067129
vt 0.104880 0.000000
vt 0.025410 1.000000
vt 0.043153 0.054424
vt 0.104463 1.000000
vt 0.000000 0.000000
vt 0.043987 0.067129
vt 0.043570 0.054424
vt 0.000000 1.000000
vt 0.104463 0.000000
vt 0.055856 0.000000
vt 0.034281 0.054424
vt 0.095174 0.000000
vt 0.025410 0.000000
vt 0.034281 0.084871
vt 0.095174 0.000000
vt 0.034281 0.054424
vt 0.095174 0.054424
vt 0.055856 0.054424
vt 0.025410 0.054424
vt 0.034281 0.084871
vt 0.095174 0.054424
vt 0.025410 0.054424
vt 0.086303 0.054424
vt 0.104046 0.000000
vt 0.055856 0.054424
vt 0.025410 0.084871
vt 0.086303 0.000000
vt 0.043153 0.054424
vt 0.086303 0.000000
vt 0.104046 0.054424
vt 0.055856 0.000000
vt 0.086303 0.054424
vt 0.043153 0.084871
s 0
usemtl Material.003
f 2/4/1 1/1/1 3/9/1
f 4/11/2 3/7/2 7/20/2
f 8/24/3 7/19/3 5/14/3
f 6/17/4 5/13/4 1/2/4
f 7/21/5 3/8/5 1/3/5
f 4/12/6 8/22/6 6/18/6
f 10/28/3 9/25/3 11/33/3
f 12/35/5 11/31/5 15/44/5
f 16/48/1 15/43/1 13/38/1
f 14/41/6 13/37/6 9/26/6
f 15/45/2 11/32/2 9/27/2
f 12/36/4 16/46/4 14/42/4
f 19/57/3 17/49/3 18/52/3
f 23/67/6 19/55/6 20/59/6
f 23/68/1 24/70/1 22/64/1
f 17/50/5 21/61/5 22/65/5
f 17/51/2 19/56/2 23/69/2
f 22/66/4 24/71/4 20/60/4
f 2/4/1 3/9/1 4/10/1
f 4/11/2 7/20/2 8/23/2
f 8/24/3 5/14/3 6/16/3
f 6/17/4 1/2/4 2/5/4
f 7/21/5 1/3/5 5/15/5
f 4/12/6 6/18/6 2/6/6
f 10/28/3 11/33/3 12/34/3
f 12/35/5 15/44/5 16/47/5
f 16/48/1 13/38/1 14/40/1
f 14/41/6 9/26/6 10/29/6
f 15/45/2 9/27/2 13/39/2
f 12/36/4 14/42/4 10/30/4
f 19/57/3 18/52/3 20/58/3
f 23/67/6 20/59/6 24/72/6
f 23/68/1 22/64/1 21/62/1
f 17/50/5 22/65/5 18/53/5
f 17/51/2 23/69/2 21/63/2
f 22/66/4 20/60/4 18/54/4
o Cube.001
v -186.885315 -181.183136 -22.842812
v -186.885315 -181.183136 106.316109
v -186.885315 154.875397 -22.842796
v -186.885315 154.875397 106.316124
v -165.025848 -181.183136 -22.842812
v -165.025848 -181.183136 106.316109
v -165.025848 154.875397 -22.842796
v -165.025848 154.875397 106.316124
vn -1.0000 -0.0000 -0.0000
vn -0.0000 1.0000 -0.0000
vn 1.0000 -0.0000 -0.0000
vn -0.0000 -1.0000 -0.0000
vn -0.0000 -0.0000 -1.0000
vn -0.0000 -0.0000 1.0000
vt 0.000000 0.000000
vt 0.600000 0.200000
vt 0.600000 0.400000
vt 0.000000 0.200000
vt 0.400000 0.800000
vt 0.400000 0.400000
vt 0.600000 0.000000
vt 0.400000 0.200000
vt 0.400000 0.400000
vt 0.400000 0.600000
vt 0.200000 0.000000
vt 0.400000 0.400000
vt 0.800000 0.200000
vt 0.400000 0.600000
vt 0.200000 0.200000
vt 0.200000 0.800000
vt 0.600000 0.400000
vt 0.200000 0.400000
vt 0.800000 0.000000
vt 0.200000 0.600000
vt 0.600000 0.600000
s 0
usemtl Material
f 26/75/7 27/80/7 25/74/7
f 28/82/8 31/90/8 27/78/8
f 32/93/9 29/84/9 31/89/9
f 30/87/10 25/73/10 29/83/10
f 31/91/11 25/74/11 27/79/11
f 28/82/12 30/88/12 32/92/12
f 26/75/7 28/81/7 27/80/7
f 28/82/8 32/92/8 31/90/8
f 32/93/9 30/86/9 29/84/9
f 30/87/10 26/76/10 25/73/10
f 31/91/11 29/85/11 25/74/11
f 28/82/12 26/77/12 30/88/12
o Cube.002
v 166.579681 -181.183136 -22.842766
v 166.579681 -181.183136 106.316154
v 166.579681 154.875397 -22.842751
v 166.579681 154.875397 106.316170
v 188.439148 -181.183136 -22.842766
v 188.439148 -181.183136 106.316154
v 188.439148 154.875397 -22.842751
v 188.439148 154.875397 106.316170
vn -1.0000 -0.0000 -0.0000
vn -0.0000 1.0000 -0.0000
vn 1.0000 -0.0000 -0.0000
vn -0.0000 -1.0000 -0.0000
vn -0.0000 -0.0000 -1.0000
vn -0.0000 -0.0000 1.0000
vt 0.800000 0.200000
vt 0.000000 0.400000
vt 0.200000 0.200000
vt 0.800000 0.400000
vt 0.000000 0.600000
vt 0.200000 0.800000
vt 0.600000 0.600000
vt 0.200000 0.000000
vt 0.600000 0.200000
vt 0.600000 0.400000
vt 0.600000 0.800000
vt 0.200000 0.600000
vt 0.200000 0.400000
vt 0.400000 0.000000
vt 0.400000 0.200000
vt 0.400000 0.200000
vt 0.200000 0.600000
vt 0.000000 0.800000
vt 0.600000 0.000000
vt 0.400000 0.600000
vt 0.400000 0.000000
vt 0.000000 0.600000
vt 0.400000 0.800000
vt 0.600000 0.200000
s 0
usemtl Material.001
f 34/97/13 35/102/13 33/94/13
f 36/104/14 39/113/14 35/100/14
f 40/117/15 37/107/15 39/112/15
f 38/110/16 33/95/16 37/106/16
f 39/114/17 33/96/17 35/101/17
f 36/105/18 38/111/18 40/115/18
f 34/97/13 36/103/13 35/102/13
f 36/104/14 40/116/14 39/113/14
f 40/117/15 38/109/15 37/107/15
f 38/110/16 34/98/16 33/95/16
f 39/114/17 37/108/17 33/96/17
f 36/105/18 34/99/18 38/111/18
